<svg height="480pt" viewBox="0 0 480 480" width="480pt" xmlns="http://www.w3.org/2000/svg" xmlns:xlink="http://www.w3.org/1999/xlink"><linearGradient id="a" gradientUnits="userSpaceOnUse" x1="240" x2="240" y1="484.88" y2="-16.488"><stop offset="0" stop-color="#e93e3a"/><stop offset=".35" stop-color="#ed683c"/><stop offset=".7" stop-color="#f3903f"/><stop offset="1" stop-color="#fdc70c"/></linearGradient><path d="m240 0c-132.546875 0-240 107.453125-240 240s107.453125 240 240 240 240-107.453125 240-240c-.148438-132.484375-107.515625-239.851562-240-240zm220.351562 280h-181.238281c.160157-.152344.328125-.289062.480469-.441406l153.308594-153.230469c27.386718 46.238281 37.136718 100.8125 27.449218 153.671875zm-248.617187-11.734375c-15.617187-15.582031-15.640625-40.882813-.046875-56.488281l.054688-.050782c15.582031-15.617187 40.882812-15.640624 56.488281-.046874l.050781.054687c15.617188 15.582031 15.640625 40.882813.046875 56.488281l-.054687.050782c-15.582032 15.617187-40.882813 15.640624-56.488282.046874zm212.320313-155.722656-128.054688 128.03125c0-.191407 0-.382813 0-.574219v-216.910156c52.007812 13.542968 97.441406 45.28125 128.054688 89.453125zm-144.054688-92.894531v181.238281c-.152344-.160157-.289062-.328125-.441406-.480469l-153.230469-153.308594c46.238281-27.386718 100.8125-37.136718 153.671875-27.449218zm-167.457031 36.296874 128.03125 128.054688c-.191407 0-.382813 0-.574219 0h-216.910156c13.542968-52.007812 45.28125-97.441406 89.453125-128.054688zm-92.894531 144.054688h181.238281c-.160157.152344-.328125.289062-.480469.441406l-153.308594 153.230469c-27.386718-46.238281-37.136718-100.8125-27.449218-153.671875zm36.296874 167.457031 128.054688-128.03125v.574219 216.910156c-52.007812-13.542968-97.441406-45.28125-128.054688-89.453125zm144.054688 92.894531v-181.238281c.152344.160157.289062.328125.441406.480469l153.230469 153.308594c-46.238281 27.386718-100.8125 37.136718-153.671875 27.449218zm167.457031-36.296874-128.03125-128.054688h.574219 216.910156c-13.542968 52.007812-45.28125 97.441406-89.453125 128.054688zm0 0" fill="url(#a)"/></svg>